<?xml version="1.0" encoding="UTF-8"?>
<svg id="Capa_1" xmlns="http://www.w3.org/2000/svg" version="1.1" viewBox="0 0 403.47 337.94">
  <!-- Generator: Adobe Illustrator 29.0.0, SVG Export Plug-In . SVG Version: 2.1.0 Build 186)  -->
  <defs>
    <style>
      .st0 {
        fill: #040404;
      }
    </style>
  </defs>
  <path class="st0" d="M9.74,174.27l59.37-103c3.16-8.55,19.94,1.53,20.76,6.06.57,3.13-2.58,6.56-5.63,6.73-3.23.17-5.97-4.12-8.13-2.03l-52.78,92.02,31.04,18.98,53.05-91.71c1.95-4.9-6.22-3.74-6.22-9.91,0-10.1,12.61-3.28,16.79-.25,7.54,5.45.83,12.03,1.25,12.61.56.77,14.87,8.37,16.74,9.15,4.19,1.76,10.16,3.66,14.55,2.28,21.4-10.18,43.58-33.71,68.96-20.54,9.18,4.76,5.76,13.83-2.22,11.97-1.39-.32-2.48-1.64-3.88-2.12-8-2.68-13.66-3.31-21.68.12l-50.68,29.6c4.7,11.75,16.97,16.78,28.96,12.43,7.42-2.69,11.25-8.54,20.12-7.63,6.91.71,9.17,7.17,15.71,9.04,7.68,2.18,15.39.45,20.3-6.02,3.26-4.29,3.16-12.42,10.14-10.97,8.37,1.74,1.8,11.39,3.06,13.11l87.1,49.49c2.16-2.18,7.46-2.31,6.42-6.08l-42.59-73.74c-9.84,4.62-18.17,11.35-29.62,11.72-6.07.2-29.07-4.48-21.41-13.94,3.75-4.63,9.49.49,13.67,1.37,7.78,1.64,13.16.48,20.11-2.83,1.43-.68,11.12-6.1,11.17-6.75.15-1.89-5.69-6.6.43-11.65,10.42-8.6,29.17-14.79,40.34-23.4,3.62-1.55,7.38-.45,9.42,2.91l59.37,103.75v3.75c-1.08,1.1-1.77,2.38-3.04,3.34-11.47,8.62-28.47,14.77-40.42,23.32-1.8.55-4.26.7-6.02-.05-2.32-.98-5.05-8.7-7.95-4.12-.35.56,2.6,7.62,2.72,10.12.36,7.84-7.9,23.49-15,27.06-1.58.79-6.86,2.05-7.21,2.54s-1.02,6.12-1.69,8.06c-1.19,3.42-6.99,13.54-9.49,16.01-4.57,4.52-10.6,5.82-16.87,5.26-3.44,17.72-17.67,36-36.77,23.22-1.43,7.93-7.82,20.47-15.25,24.13-14.52,7.16-25.14-6.48-37.66-11.37-15.18,10.56-30.31,21.78-43.7,1.71-2.61-3.91-6.09-9.84-6.15-14.48-18.37,5.38-28.62-9.95-32.28-25.46-9.88.89-16.06-1.41-21.59-9.54-3.97-5.85-8.14-14-7.7-21.17-9.21.02-20.07-16.68-20.93-24.44-.27-2.45,1.01-11.07.67-11.53-.11-.15-3.13-1.5-3.31-1.49-.48.04-3.27,4.83-4.87,5.5-1.76.75-4.22.6-6.02.05-11.79-8.55-29.18-14.7-40.42-23.32-1.27-.97-1.96-2.23-3.04-3.34v-4.5ZM294.74,98.53l53.98,94.17,31.19-17.66-52.9-93.44-1.72-.22-30.55,17.15ZM134.23,124.03c-2.41-.43-4.63-1.49-6.76-2.62-3.03-1.6-10.33-6.91-12.7-7.6-.88-.25-1.31-.49-1.9.45l-43.05,74.76c-.13,1.33,4.86,4.1,6.13,3.91,6.57-2.44,20.2-13.75,26.43-14.2,6.94-.51,8.69,6.78,3.63,10.43-6.72,4.85-19.94,9.16-25.8,14.7-5.12,4.84-.43,12.22,2.72,16.85s5.27,6.76,11.37,4.73c2.87-.95,18.54-10.19,21.45-12.3,3.23-2.34,6.39-6.66,6.53-10.78.14-4.12-5.84-12.86,1.26-14.45,4.78-1.07,6.7.76,8.31,4.88,2.9,7.45,1.45,13.05-.54,20.4,11.23,3.36,17.56,14.13,17.19,25.57,15.73-1.5,29.07,11.18,27.75,27,12.88-1.76,26.42,7.4,27.74,20.63.24,2.38-.6,7.77.37,9.38.74,1.22,21.97,12.65,24.03,12.62,5.08-.08,10.39-9.22,11.77-13.58,4.46-14.09-21.42-14.06-20.41-24.1.35-3.46,4.33-5.93,7.51-4.6,10.54,5.05,20.55,12.76,30.98,17.78,10.41,5.02,13.15.09,17.41-9.1,2.12-4.57,2.64-7.19-.98-11.29l-33.96-19.83c-5.1-4.62-.55-12.1,5.84-9.59,12.8,6.67,25.18,15.52,37.95,22.05,4.87,2.49,8.67,5.12,13.28.28,1.27-1.34,5.93-9.22,6.36-10.88,1.27-4.9.42-7.19-3.44-10.1-10.5-7.92-26.43-14-37.68-21.57-3.48-2.34-7.1-4.09-5.61-9.07.76-2.56,5.46-4.59,7.89-2.96l47.24,27c7.31,2.18,10.9-5.66,13.35-11.06,2.09-4.6,2.71-7.11-.97-11.28l-92.25-53.12c-2.47-.39-6.85,3.97-10.28,5.16-10.07,3.5-19.67,2.02-28.4-3.91-1.66-1.13-3.75-4.23-5.41-4.39-2.39-.24-10.84,5.65-14.09,6.91-9.15,3.56-17.12,3.6-26.28-.24-11.28-4.73-26.5-21.77-13.99-32.88ZM123.56,223.22c-3.82.14-21.38,9.65-23.24,12.76-2.85,4.78,1.96,13,5.09,16.99,2.43,3.1,4.67,4.49,8.78,3.63,2.27-.48,15.57-8.26,17.73-10.03,10-8.18,3.42-23.78-8.36-23.36ZM150.58,250.18c-3.07.31-17.92,8.4-20.12,10.69-2.95,3.07-2.75,5.76-1.28,9.58.51,1.32,4.6,8.5,5.45,9.55,2.22,2.74,6.04,3.6,9.38,2.67,2.5-.69,16.36-9.2,17.97-11.27,7.18-9.19.06-22.36-11.4-21.21ZM177.54,277.2c-2.17.35-13.58,6.51-15.2,8.05-3.11,2.97-2.44,6.6-.99,10.04,1.8,4.25,5.95,11.98,10.85,12.44,4.21.4,16.75-7.23,18.92-10.95,5.67-9.71-2.48-21.38-13.59-19.58Z"/>
  <path class="st0" d="M198.54,18.45c6.83-1.09,14.11,2.55,17.1,8.79,2.65,5.53,2.44,21.61,1.87,28.18-1.8,20.94-30.28,20.55-32.27.71-.52-5.23-.67-21,.51-25.73,1.4-5.63,7.06-11.04,12.79-11.96ZM200.78,29.64c-1.61.25-3.96,2.37-4.27,4.03-.63,3.35-.47,17.29-.04,21,.79,6.81,8.75,6.65,9.72.69.61-3.76.52-16.26.06-20.22-.33-2.81-2.43-5.97-5.47-5.49Z"/>
  <path class="st0" d="M259.28,31.94c10.97-2.24,21.52,5.89,20.28,17.24-.49,4.45-11.21,23.19-14.44,26.84-10.49,11.86-29.98,3.03-27.94-12.94.64-5.01,12.86-25.67,17.1-28.65,1.05-.74,3.84-2.27,5-2.5ZM261.52,43.16c-1.18.35-1.98,1.67-2.66,2.61-1.46,2.01-9.89,16.57-10.3,18.24-1.34,5.48,4.33,8.11,8.24,4.45.97-.91,10.84-18.19,11.2-19.61,1.08-4.2-2.5-6.87-6.48-5.69Z"/>
  <path class="st0" d="M135.54,31.95c5.28-.9,9.54-.16,13.71,3.18,3.24,2.59,13.45,19.6,15.13,23.87,6.05,15.34-11.14,29.07-24.52,19.27-3.28-2.4-13.48-19.53-15.18-23.82-3.66-9.18.46-20.73,10.86-22.5ZM137.78,43.17c-2.17.49-3.51,2.54-3.46,4.74.03,1.23,11.21,20.66,12.23,21.4,3.77,2.73,9.38-.61,7.1-6.35-1.02-2.57-8.75-16.14-10.42-18.08s-2.87-2.3-5.46-1.71Z"/>
  <path class="st0" d="M89.78,106.56c-5.74,5.74-13.47-3.99-8.11-8.48,5.51-4.61,13.31,3.27,8.11,8.48Z"/>
  <path class="st0" d="M313.7,106.56c-3.88-3.88-.75-10.41,5.36-9.51,9.59,1.42,1.7,16.56-5.36,9.51Z"/>
</svg>